<?xml version="1.0" standalone="no"?>
<!DOCTYPE svg PUBLIC "-//W3C//DTD SVG 20010904//EN"
 "http://www.w3.org/TR/2001/REC-SVG-20010904/DTD/svg10.dtd">
<svg version="1.0" xmlns="http://www.w3.org/2000/svg"
 width="640.000000pt" height="640.000000pt" viewBox="0 0 640.000000 640.000000"
 preserveAspectRatio="xMidYMid meet">
<metadata>
Created by potrace 1.11, written by Peter Selinger 2001-2013
</metadata>
<g transform="translate(0.000000,640.000000) scale(0.100000,-0.100000)"
fill="#000000" stroke="none">
<path d="M2979 6396 c-2 -2 -35 -7 -74 -11 -393 -37 -754 -138 -1100 -306
-432 -209 -775 -484 -1120 -900 -149 -179 -345 -515 -450 -774 -70 -172 -154
-457 -181 -615 -4 -25 -8 -47 -9 -50 -1 -3 -5 -32 -9 -65 -5 -33 -10 -68 -12
-78 -19 -105 -26 -560 -11 -697 26 -232 56 -385 114 -590 34 -120 93 -287 113
-322 5 -10 10 -22 10 -27 0 -15 102 -225 156 -321 270 -484 679 -904 1159
-1190 257 -153 539 -271 825 -346 109 -28 332 -71 417 -79 32 -4 69 -9 83 -11
45 -10 503 -12 585 -3 187 20 174 18 345 51 915 175 1718 761 2182 1593 204
365 325 752 382 1225 13 107 14 550 2 635 -3 17 -7 50 -10 75 -66 573 -307
1144 -682 1615 -112 140 -347 375 -489 488 -472 377 -1039 617 -1615 683 -25
3 -58 7 -75 10 -37 5 -531 14 -536 10z m522 -306 c138 -189 221 -459 223 -725
1 -148 -6 -207 -36 -320 -41 -156 -97 -255 -222 -394 -153 -168 -238 -301
-296 -458 -48 -134 -62 -228 -66 -443 -2 -178 2 -256 21 -392 4 -27 4 -48 1
-48 -5 0 -116 176 -116 184 0 3 -15 38 -34 78 -36 76 -67 168 -87 253 -12 51
-13 62 -23 130 -7 51 -8 231 -1 270 3 17 8 46 11 65 19 119 96 296 174 400 22
30 68 85 102 123 253 282 346 493 350 790 2 97 -7 235 -17 302 -5 29 -17 106
-20 135 -2 14 -8 44 -13 68 -6 23 -6 42 -2 42 4 0 27 -27 51 -60z m-637 -519
c51 -99 72 -164 91 -276 12 -76 13 -250 1 -306 -28 -128 -82 -232 -173 -335
-88 -100 -98 -113 -132 -169 -81 -133 -113 -261 -115 -455 -1 -127 9 -274 20
-292 3 -4 2 -8 -3 -8 -12 1 -48 61 -93 155 -58 118 -91 256 -91 380 -1 203 56
346 205 513 208 233 260 388 233 701 -4 46 -9 86 -11 90 -2 3 -7 27 -10 53 -4
26 -9 56 -13 65 -5 14 0 12 20 -6 15 -13 46 -63 71 -110z m1247 -16 c97 -197
121 -464 58 -656 -29 -88 -69 -156 -140 -235 -130 -143 -189 -242 -231 -391
-19 -66 -22 -104 -23 -243 0 -91 3 -196 8 -235 l7 -70 -26 39 c-48 70 -113
221 -135 312 -28 113 -30 278 -4 374 31 119 93 228 185 327 103 110 173 223
211 339 18 55 23 97 25 209 2 77 -1 163 -5 190 -5 28 -12 73 -15 100 -4 28 -9
59 -12 70 -10 41 57 -50 97 -130z m353 -2600 c-5 -484 -148 -938 -401 -1268
-68 -89 -208 -225 -284 -275 l-64 -44 105 6 c58 3 191 8 295 11 230 7 452 18
577 30 56 5 78 -4 78 -31 0 -20 -13 -30 -77 -62 -151 -72 -311 -128 -478 -164
-98 -22 -113 -23 -980 -25 -922 -2 -922 -2 -1110 42 -177 41 -474 163 -488
199 -10 25 35 48 80 42 39 -5 155 -13 298 -21 44 -2 184 -7 310 -10 127 -3
260 -8 298 -11 37 -2 67 -1 67 3 0 5 -18 18 -40 31 -21 12 -84 66 -140 119
l-101 98 -142 -2 c-213 -3 -335 26 -449 106 -83 58 -114 88 -183 176 -130 166
-167 272 -169 475 0 87 5 144 16 186 62 229 214 358 453 387 17 2 31 9 31 15
1 7 2 29 3 50 l1 37 1248 0 1247 -1 -1 -99z"/>
<path d="M1893 2765 c-127 -29 -206 -112 -238 -250 -40 -170 0 -350 109 -490
120 -155 244 -223 424 -232 l103 -6 -37 63 c-110 188 -206 454 -250 690 -13
73 -31 225 -28 232 6 9 -22 7 -83 -7z"/>
</g>
</svg>
